<svg width="14" height="14" viewBox="0 0 14 14" fill="none" xmlns="http://www.w3.org/2000/svg">
<path d="M3.83146 8.06202L0.291459 11.602C0.151912 11.7417 0.0570147 11.9196 0.018819 12.1133C-0.0193767 12.307 0.000851691 12.5077 0.0769359 12.6899C0.15302 12.8721 0.281527 13.0275 0.446139 13.1365C0.61075 13.2455 0.804038 13.3031 1.00146 13.302C1.26146 13.302 1.51146 13.202 1.71146 13.012L4.54146 10.182L6.66146 8.06202L9.49146 10.892L11.6115 13.012C11.8115 13.212 12.0615 13.302 12.3215 13.302C12.5815 13.302 12.8315 13.202 13.0315 13.012C13.1242 12.9195 13.1977 12.8096 13.2479 12.6886C13.2981 12.5677 13.3239 12.438 13.3239 12.307C13.3239 12.1761 13.2981 12.0464 13.2479 11.9254C13.1977 11.8044 13.1242 11.6945 13.0315 11.602L9.49146 8.06202L8.08146 6.65202L13.0315 1.70202C13.2184 1.51504 13.3235 1.26145 13.3235 0.99702C13.3235 0.732594 13.2184 0.478998 13.0315 0.29202C12.8445 0.105043 12.5909 0 12.3265 0C12.062 0 11.8084 0.105043 11.6215 0.29202L6.67146 5.24202L1.72146 0.29202C1.62888 0.199438 1.51897 0.125998 1.398 0.0758934C1.27704 0.0257884 1.14739 9.75509e-10 1.01646 0C0.885528 -9.75509e-10 0.75588 0.0257884 0.634915 0.0758934C0.513951 0.125998 0.404041 0.199438 0.311459 0.29202C0.218877 0.384602 0.145437 0.494513 0.0953318 0.615477C0.0452268 0.736441 0.0194379 0.86609 0.0194379 0.99702C0.0194379 1.12795 0.0452268 1.2576 0.0953318 1.37856C0.145437 1.49953 0.218877 1.60944 0.311459 1.70202L5.26146 6.65202L3.85146 8.06202H3.83146Z" fill="black"/>
</svg>
