<svg width="36" height="36" viewBox="0 0 36 36" fill="none" xmlns="http://www.w3.org/2000/svg">
<path d="M18 22.5C20.4853 22.5 22.5 20.4853 22.5 18C22.5 15.5147 20.4853 13.5 18 13.5C15.5147 13.5 13.5 15.5147 13.5 18C13.5 20.4853 15.5147 22.5 18 22.5Z" stroke="black" stroke-width="1.5"/>
<path d="M20.6481 3.22836C20.0967 3 19.3978 3 18 3C16.6021 3 15.9033 3 15.3519 3.22836C14.6169 3.53285 14.0328 4.11687 13.7283 4.85195C13.5894 5.18751 13.5349 5.57775 13.5137 6.14699C13.4824 6.98352 13.0534 7.75784 12.3284 8.1764C11.6035 8.59494 10.7184 8.57931 9.97828 8.18814C9.47467 7.92195 9.10951 7.77393 8.74941 7.72653C7.96056 7.62267 7.16277 7.83644 6.53154 8.3208C6.05811 8.68407 5.70865 9.28935 5.00974 10.4999C4.31083 11.7105 3.96138 12.3157 3.88348 12.9074C3.77964 13.6962 3.9934 14.494 4.47777 15.1252C4.69884 15.4134 5.00955 15.6555 5.49178 15.9585C6.2007 16.404 6.65683 17.1629 6.65679 18C6.65674 18.8371 6.20062 19.5958 5.49177 20.0412C5.00947 20.3443 4.69872 20.5866 4.47762 20.8748C3.99325 21.506 3.77949 22.3037 3.88335 23.0925C3.96123 23.6841 4.31068 24.2895 5.00959 25.5C5.70852 26.7105 6.05797 27.3159 6.53139 27.679C7.16262 28.1634 7.96041 28.3771 8.74926 28.2733C9.10933 28.2259 9.47448 28.0779 9.97806 27.8118C10.7182 27.4206 11.6033 27.405 12.3283 27.8235C13.0534 28.2421 13.4824 29.0164 13.5137 29.8531C13.535 30.4222 13.5894 30.8125 13.7283 31.1481C14.0328 31.8831 14.6169 32.4672 15.3519 32.7717C15.9033 33 16.6021 33 18 33C19.3978 33 20.0967 33 20.6481 32.7717C21.3831 32.4672 21.9672 31.8831 22.2715 31.1481C22.4106 30.8125 22.465 30.4223 22.4863 29.853C22.5175 29.0165 22.9465 28.2421 23.6715 27.8235C24.3964 27.4048 25.2816 27.4206 26.0218 27.8118C26.5254 28.0779 26.8905 28.2258 27.2505 28.2732C28.0393 28.3772 28.8372 28.1634 29.4684 27.679C29.9418 27.3157 30.2913 26.7105 30.9901 25.4999C31.6891 24.2894 32.0386 23.6841 32.1165 23.0925C32.2203 22.3037 32.0065 21.5058 31.5222 20.8746C31.3011 20.5864 30.9903 20.3442 30.508 20.0412C29.7993 19.5958 29.3431 18.837 29.3431 17.9998C29.3431 17.1627 29.7993 16.4042 30.508 15.9588C30.9904 15.6557 31.3012 15.4135 31.5223 15.1252C32.0067 14.4941 32.2204 13.6963 32.1166 12.9075C32.0388 12.3158 31.6893 11.7105 30.9903 10.5C30.2914 9.28945 29.9419 8.68417 29.4685 8.3209C28.8373 7.83654 28.0395 7.62278 27.2506 7.72664C26.8906 7.77404 26.5255 7.92204 26.0218 8.1882C25.2817 8.57938 24.3966 8.59503 23.6716 8.17644C22.9465 7.75787 22.5175 6.98349 22.4863 6.14691C22.465 5.57772 22.4106 5.1875 22.2715 4.85195C21.9672 4.11687 21.3831 3.53285 20.6481 3.22836Z" stroke="black" stroke-width="1.5"/>
</svg>
